<svg xmlns="http://www.w3.org/2000/svg" viewBox="0 0 24 24" fill="#ffffffff" width="20" height="20">
  <path d="M12 .5C5.73.5.5 5.73.5 12A11.5 11.5 0 007.77 22.27c.57.1.77-.24.77-.54v-2.1c-3.16.69-3.83-1.51-3.83-1.51-.52-1.32-1.28-1.67-1.28-1.67-1.04-.71.08-.7.08-.7 1.15.08 1.76 1.18 1.76 1.18 1.02 1.74 2.67 1.24 3.33.95.1-.74.4-1.24.73-1.53-2.53-.29-5.2-1.26-5.2-5.59 0-1.24.44-2.26 1.17-3.05-.12-.29-.5-1.45.11-3.02 0 0 .95-.3 3.1 1.17a10.9 10.9 0 012.82-.38c.96 0 1.92.13 2.82.38 2.16-1.47 3.1-1.17 3.1-1.17.61 1.57.23 2.73.11 3.02.72.8 1.17 1.81 1.17 3.05 0 4.34-2.67 5.3-5.21 5.59.41.36.77 1.06.77 2.15v3.18c0 .3.2.65.78.54A11.5 11.5 0 0023.5 12C23.5 5.73 18.27.5 12 .5z"/>
</svg>
